<svg xmlns="http://www.w3.org/2000/svg" viewBox="0 0 67.67 43.22"><defs><style>.cls-1{fill:#48484a;}.cls-2{fill:#f2f2f1;}</style></defs><title>04d</title><g id="Layer_2" data-name="Layer 2"><g id="Layer_1-2" data-name="Layer 1"><path class="cls-1" d="M29.27,12.78S19,12.53,19,21.84s7,8.86,11.84,8.86h29.2c5.63,0,7.59-3.68,7.59-6.44s-.81-7.47-7.93-7.47c0,0,.88-11.39-10.24-6.79a14.82,14.82,0,0,0-2-4.83C46.17,3.22,43,0,38.7,0s-6.21,2.41-7.59,4.25S29.27,9.23,29.27,12.78Z"/><path class="cls-2" d="M12.53,21.28S0,21,0,32.38,8.59,43.22,14.5,43.22H50.26c6.9,0,9.29-4.51,9.29-7.88s-1-9.15-9.71-9.15c0,0,1.08-13.94-12.53-8.31A18.22,18.22,0,0,0,34.91,12c-1.69-2.4-5.63-6.34-10.84-6.34s-7.6,3-9.29,5.21S12.53,16.94,12.53,21.28Z"/></g></g></svg>