<?xml version="1.0" encoding="utf-8"?>
<!-- Generator: Adobe Illustrator 23.1.1, SVG Export Plug-In . SVG Version: 6.00 Build 0)  -->
<svg version="1.1" id="Layer_1" xmlns="http://www.w3.org/2000/svg" xmlns:xlink="http://www.w3.org/1999/xlink" x="0px" y="0px"
	 viewBox="0 0 53.5 48.8" style="enable-background:new 0 0 53.5 48.8;" xml:space="preserve">
<style type="text/css">
	.st0{fill:#48484A;}
	.st1{fill:#F2F2F1;}
</style>
<title>09d</title>
<g>
	<path class="st0" d="M10.7,39.6l-1.3,2.9l0,0l0,0c-0.9,1.9,1.3,3.3,2.4,1.1l1.3-2.9C14,38.8,11.8,37.3,10.7,39.6z"/>
	<path class="st0" d="M19,38.6L19,38.6l-1.2,2.9c-0.8,1.9,1.5,3.3,2.4,1l0,0l1.2-2.9C22.3,37.7,20,36.3,19,38.6z"/>
	<path class="st0" d="M17.9,45.3c-0.7-0.2-1.5,0.2-1.7,0.9c-0.1,0.1-0.1,0.2-0.1,0.3c-0.2,0.7,0.2,1.5,0.9,1.7
		c0.7,0.2,1.5-0.2,1.7-0.9c0.1-0.1,0.1-0.2,0.1-0.3C19,46.3,18.6,45.5,17.9,45.3z"/>
	<path class="st0" d="M29.5,36.3c-0.7-0.2-1.4,0.3-1.6,1c-0.1,0.1-0.1,0.3-0.2,0.4c-0.2,0.7,0.3,1.4,1,1.6c0.7,0.2,1.4-0.3,1.6-1
		c0.1-0.1,0.1-0.3,0.2-0.4C30.6,37.2,30.2,36.5,29.5,36.3z"/>
	<path class="st0" d="M24.5,45.6L24.5,45.6l-0.4,0.8l0,0c-1,2.1,1.8,3.4,2.8,1.3l0,0l0.4-0.8l-0.1-0.1l0.1,0.1
		C28.3,44.7,25.5,43.4,24.5,45.6z"/>
	<path class="st0" d="M23.1,10.1c0,0-8.1-0.2-8.1,7.2s5.5,7,9.4,7h23.1c4.5,0,6-2.9,6-5.1s-0.6-5.9-6.3-5.9c0,0,0.7-9-8.1-5.4
		c-0.3-1.4-0.8-2.7-1.6-3.8C36.5,2.5,34,0,30.6,0s-4.9,1.9-6,3.4S23.1,7.3,23.1,10.1z"/>
	<path class="st1" d="M39.4,20.7c0,0,0.9-11-9.9-6.6c-0.4-1.6-1-3.2-1.9-4.6c-1.3-1.9-4.4-5-8.6-5s-6,2.4-7.3,4.1s-1.8,4.8-1.8,8.2
		c0,0-9.9-0.2-9.9,8.8s6.8,8.6,11.5,8.6H12c0-0.5,0.1-1,0.3-1.4c1.4-3,5.1-1.5,4.2,1.4h23.3c5.5,0,7.3-3.6,7.3-6.2
		S46.3,20.7,39.4,20.7z"/>
	<path class="st0" d="M14.7,32.2c-0.7-0.2-1.4,0.2-1.6,1L13,33.4l0,0c-0.1,0.1-0.2,0.3-0.2,0.4c-0.2,0.7,0.3,1.4,1,1.6
		c0.7,0.2,1.4-0.3,1.6-1l0.1-0.2c0.1-0.1,0.1-0.3,0.2-0.4C15.9,33.1,15.4,32.4,14.7,32.2z"/>
</g>
</svg>
