<svg xmlns="http://www.w3.org/2000/svg" viewBox="0 0 53.46 48.77"><defs><style>.cls-1{fill:#48484a;}.cls-2{fill:#f2f2f1;}</style></defs><title>09n</title><g id="Layer_2" data-name="Layer 2"><g id="Layer_1-2" data-name="Layer 1"><path class="cls-1" d="M10.74,39.56,9.4,42.43h0c-.89,1.89,1.35,3.34,2.39,1.11l1.34-2.87C14,38.78,11.78,37.34,10.74,39.56Z"/><path class="cls-1" d="M19,38.56h0l-1.24,2.92c-.81,1.93,1.47,3.28,2.42,1h0l1.23-2.92C22.26,37.67,20,36.3,19,38.56Z"/><path class="cls-1" d="M17.91,45.32a1.33,1.33,0,0,0-1.65.9,1,1,0,0,0-.15.32,1.34,1.34,0,0,0,2.57.75,1.77,1.77,0,0,0,.15-.31A1.34,1.34,0,0,0,17.91,45.32Z"/><path class="cls-1" d="M29.45,36.31a1.34,1.34,0,0,0-1.62,1,1.65,1.65,0,0,0-.18.41,1.34,1.34,0,1,0,2.6.65,1.65,1.65,0,0,0,.18-.41A1.35,1.35,0,0,0,29.45,36.31Z"/><path class="cls-1" d="M24.49,45.58h0l-.38.82h0A1.55,1.55,0,1,0,26.9,47.7h0l.39-.81-.12-.06.12.06A1.56,1.56,0,1,0,24.49,45.58Z"/><path class="cls-1" d="M23.15,10.11S15,9.91,15,17.28s5.54,7,9.36,7h23.1c4.46,0,6-2.91,6-5.09s-.64-5.91-6.28-5.91c0,0,.7-9-8.1-5.37A11.54,11.54,0,0,0,37.5,4.09C36.52,2.55,34,0,30.61,0s-4.91,1.91-6,3.36S23.15,7.3,23.15,10.11Z"/><path class="cls-2" d="M39.42,20.72s.86-11-9.91-6.58a14.31,14.31,0,0,0-1.9-4.65c-1.33-1.9-4.45-5-8.57-5S13,6.85,11.69,8.6s-1.78,4.8-1.78,8.23c0,0-9.91-.22-9.91,8.78s6.79,8.58,11.47,8.58H12a3,3,0,0,1,.28-1.41c1.35-3,5.13-1.51,4.22,1.41H39.76c5.45,0,7.34-3.57,7.34-6.24S46.31,20.72,39.42,20.72Z"/><path class="cls-1" d="M14.73,32.18a1.34,1.34,0,0,0-1.63,1l-.11.26h0a1.23,1.23,0,0,0-.19.44,1.34,1.34,0,1,0,2.6.63l.1-.25a1.33,1.33,0,0,0,.19-.42A1.35,1.35,0,0,0,14.73,32.18Z"/></g></g></svg>