<?xml version="1.0" encoding="utf-8"?>
<!-- Generator: Adobe Illustrator 23.1.1, SVG Export Plug-In . SVG Version: 6.00 Build 0)  -->
<svg version="1.1" id="Layer_1" xmlns="http://www.w3.org/2000/svg" xmlns:xlink="http://www.w3.org/1999/xlink" x="0px" y="0px"
	 viewBox="0 0 51.2 48.5" style="enable-background:new 0 0 51.2 48.5;" xml:space="preserve">
<style type="text/css">
	.st0{fill:#EC6E4C;}
	.st1{fill:#48484A;}
	.st2{fill:#F2F2F1;}
</style>
<title>10d</title>
<circle class="st0" cx="37.6" cy="13.7" r="13.7"/>
<path class="st1" d="M10.7,39.3l-1.3,2.9l0,0l0,0c-0.9,1.9,1.3,3.3,2.4,1.1l1.3-2.9C14,38.5,11.8,37.1,10.7,39.3z"/>
<path class="st1" d="M19,38.3L19,38.3l-1.2,2.9c-0.8,1.9,1.5,3.3,2.4,1l0,0l1.2-2.9C22.3,37.4,20,36,19,38.3z"/>
<path class="st1" d="M17.9,45c-0.7-0.2-1.4,0.2-1.7,0.9c-0.1,0.1-0.1,0.2-0.2,0.4c0,0,0,0.1,0,0.1c-0.2,0.7,0.3,1.4,1,1.6
	c0.7,0.2,1.4-0.3,1.6-1l0,0c0.1-0.1,0.1-0.2,0.2-0.4C19.1,46,18.6,45.2,17.9,45z"/>
<path class="st1" d="M29.5,36.1c-0.7-0.2-1.5,0.2-1.7,0.9c-0.1,0.1-0.1,0.3-0.2,0.4c-0.2,0.7,0.3,1.4,1,1.6s1.4-0.3,1.6-1
	c0.1-0.1,0.1-0.3,0.2-0.4C30.6,37,30.2,36.3,29.5,36.1z"/>
<path class="st1" d="M26.4,44.3c-0.8-0.3-1.7,0.2-1.9,1l0,0l-0.4,0.8l0,0c-0.1,0.1-0.1,0.2-0.2,0.4c-0.2,0.8,0.2,1.7,1.1,1.9
	c0.8,0.2,1.7-0.2,1.9-1.1l0,0l0.3-0.7l0,0c0.1-0.1,0.1-0.2,0.2-0.4C27.7,45.4,27.3,44.5,26.4,44.3z"/>
<path class="st2" d="M39.4,20.4c0,0,0.9-11-9.9-6.6c-0.4-1.7-1-3.2-1.9-4.6c-1.3-1.9-4.4-5-8.6-5s-6,2.4-7.4,4.1s-1.8,4.8-1.8,8.2
	c0,0-9.9-0.2-9.9,8.8s6.8,8.6,11.5,8.6H12c0-0.5,0.1-1,0.3-1.4c1.4-3,5.1-1.5,4.2,1.4h23.3c5.5,0,7.3-3.6,7.3-6.2
	S46.3,20.4,39.4,20.4z"/>
<path class="st1" d="M14.7,31.9c-0.7-0.2-1.4,0.2-1.6,1L13,33.1l0,0c-0.1,0.1-0.2,0.3-0.2,0.4c-0.1,0.7,0.3,1.4,0.9,1.6
	c0.7,0.2,1.5-0.2,1.7-0.9l0.1-0.2c0.1-0.1,0.1-0.3,0.2-0.4C15.9,32.8,15.4,32.1,14.7,31.9z"/>
</svg>
