<svg xmlns="http://www.w3.org/2000/svg" viewBox="0 0 51.23 48.46"><defs><style>.cls-1{fill:#48484a;}.cls-2{fill:#f2f2f1;}</style></defs><title>10n</title><g id="Layer_2" data-name="Layer 2"><g id="Layer_1-2" data-name="Layer 1"><circle class="cls-1" cx="37.56" cy="13.67" r="13.67"/><path class="cls-1" d="M10.74,39.27,9.4,42.14h0c-.89,1.89,1.35,3.34,2.39,1.11l1.34-2.87C14,38.49,11.78,37.05,10.74,39.27Z"/><path class="cls-1" d="M19,38.27h0l-1.24,2.92c-.81,1.93,1.47,3.28,2.42,1h0l1.23-2.92C22.26,37.38,20,36,19,38.27Z"/><path class="cls-1" d="M17.94,45a1.35,1.35,0,0,0-1.66.88,1.24,1.24,0,0,0-.17.37l0,.12a1.34,1.34,0,0,0,2.59.66h0a1.43,1.43,0,0,0,.17-.38A1.34,1.34,0,0,0,17.94,45Z"/><path class="cls-1" d="M29.49,36.09a1.34,1.34,0,0,0-1.66.91,1.5,1.5,0,0,0-.18.41,1.34,1.34,0,0,0,2.6.65,1.57,1.57,0,0,0,.18-.42A1.33,1.33,0,0,0,29.49,36.09Z"/><path class="cls-1" d="M26.44,44.26a1.56,1.56,0,0,0-2,1h0l-.38.81h0a1.52,1.52,0,0,0-.18.36,1.56,1.56,0,1,0,3,.87h0l.34-.73h0a1.46,1.46,0,0,0,.18-.38A1.56,1.56,0,0,0,26.44,44.26Z"/><path class="cls-2" d="M39.42,20.43s.86-11-9.91-6.58a14.22,14.22,0,0,0-1.9-4.65c-1.33-1.9-4.45-5-8.57-5s-6,2.36-7.35,4.11-1.78,4.8-1.78,8.23c0,0-9.91-.22-9.91,8.78S6.79,33.9,11.47,33.9H12a3,3,0,0,1,.28-1.41c1.35-3,5.13-1.51,4.22,1.41H39.76c5.45,0,7.34-3.57,7.34-6.24S46.31,20.43,39.42,20.43Z"/><path class="cls-1" d="M14.73,31.89a1.34,1.34,0,0,0-1.63,1l-.11.26h0a1.18,1.18,0,0,0-.19.43,1.34,1.34,0,0,0,2.6.64l.1-.25a1.33,1.33,0,0,0,.19-.42A1.35,1.35,0,0,0,14.73,31.89Z"/></g></g></svg>