<svg xmlns="http://www.w3.org/2000/svg" viewBox="0 0 65.4 52.91"><defs><style>.cls-1{fill:#48484a;}.cls-2{fill:#ec6e4c;}.cls-3{fill:#f2f2f1;}</style></defs><title>11n</title><g id="Layer_2" data-name="Layer 2"><g id="Layer_1-2" data-name="Layer 1"><path class="cls-1" d="M28.3,12.36s-9.93-.24-9.93,8.76,6.77,8.57,11.45,8.57H58.06c5.44,0,7.34-3.56,7.34-6.23s-.79-7.22-7.67-7.22c0,0,.85-11-9.9-6.57A14.41,14.41,0,0,0,45.89,5c-1.25-1.89-4.31-5-8.47-5s-6,2.33-7.34,4.11S28.3,8.93,28.3,12.36Z"/><polygon class="cls-2" points="20.23 32.17 14.69 42.5 18.96 42.5 14.69 52.91 26.8 38.98 21.26 39.02 26.05 32.17 20.23 32.17"/><path class="cls-3" d="M48.19,25.32s1.05-13.47-12.11-8a17.78,17.78,0,0,0-2.32-5.69c-1.64-2.32-5.45-6.13-10.49-6.13s-7.34,2.9-9,5-2.17,5.87-2.17,10.07c0,0-12.12-.27-12.12,10.73S8.28,41.79,14,41.79L20,31.39h7.61L22.8,38.25h5.69l-2.9,3.55h23c6.67,0,9-4.36,9-7.62S56.62,25.32,48.19,25.32Z"/></g></g></svg>