<svg xmlns="http://www.w3.org/2000/svg" viewBox="0 0 37.44 41.23"><defs><style>.cls-1{fill:#48484a;}</style></defs><title>13d</title><g id="Layer_2" data-name="Layer 2"><g id="Layer_1-2" data-name="Layer 1"><path class="cls-1" d="M27.71,17.29l7.61,1.95A1.7,1.7,0,1,0,36.17,16l-4.33-1.11,4.05-2.39a1.7,1.7,0,1,0-1.73-2.92l-3.83,2.26,1-3.81A1.69,1.69,0,1,0,28,7.13l-1.83,7.1L23,16.11l-1.8-1-.79-.45V11.2L26,5.64a1.68,1.68,0,0,0,0-2.4,1.7,1.7,0,0,0-2.4,0L20.43,6.4V1.7A1.7,1.7,0,1,0,17,1.7V6.14L14.25,3.36a1.7,1.7,0,0,0-2.4,2.4L17,11v3.69L14.4,16.16l-3-1.72-2-7.59a1.7,1.7,0,1,0-3.28.87L7.28,12,3.21,9.69a1.7,1.7,0,0,0-1.7,2.94l3.84,2.22-3.8,1a1.7,1.7,0,0,0,.88,3.28l7.08-1.89,3.2,1.84v3l-3,1.71L2.14,21.79a1.69,1.69,0,1,0-.88,3.27l4.31,1.17L1.49,28.57a1.7,1.7,0,0,0,1.69,2.95L7,29.3,6,33.1A1.7,1.7,0,1,0,9.29,34l1.91-7.08,3.2-1.84L17,26.59V30l-5.58,5.54A1.7,1.7,0,1,0,13.82,38L17,34.83l0,4.7a1.7,1.7,0,0,0,3.4,0l0-4.44,2.77,2.79a1.7,1.7,0,1,0,2.41-2.39l-5.16-5.21V26.62l1-.56,1.76-1,3,1.67,2.11,7.58a1.7,1.7,0,1,0,3.27-.91l-1.2-4.3,4.1,2.31a1.7,1.7,0,0,0,1.67-3l-3.87-2.18L36,25.2a1.7,1.7,0,0,0-.91-3.27l-7.06,2-3.22-1.81,0-2.82V19Zm-6.24,2.49v1.66a1.3,1.3,0,0,1-.38.92,1,1,0,0,1-.26.2l-1.44.83a1.28,1.28,0,0,1-.66.18h0a1.35,1.35,0,0,1-.29,0,1.66,1.66,0,0,1-.31-.12l-1.25-.71-.21-.12a1.33,1.33,0,0,1-.61-.77,1.86,1.86,0,0,1,0-.33l0-1.66a1.33,1.33,0,0,1,.65-1.15l.33-.19,1.12-.64a1.29,1.29,0,0,1,1-.13,1.2,1.2,0,0,1,.31.13l1.43.83a1.32,1.32,0,0,1,.61.78A1.86,1.86,0,0,1,21.47,19.78Z"/></g></g></svg>