<svg xmlns="http://www.w3.org/2000/svg" viewBox="0 0 54.04 33.32"><defs><style>.cls-1{fill:#48484a;}</style></defs><title>50n</title><g id="Layer_2" data-name="Layer 2"><g id="Layer_1-2" data-name="Layer 1"><path class="cls-1" d="M35.27,6H4.32C2,6,1.92,9,4.32,9h31C37.67,9,37.62,6,35.27,6Z"/><path class="cls-1" d="M32,0H16.9c-2.36,0-2.41,3,0,3H32C34.39,3,34.34,0,32,0Z"/><path class="cls-1" d="M52.26,12.58H15.86c-2.35,0-2.4,3,0,3h36.4C54.66,15.59,54.62,12.58,52.26,12.58Z"/><path class="cls-1" d="M38.18,18.49H1.79c-2.36,0-2.41,3,0,3H38.18C40.59,21.5,40.54,18.49,38.18,18.49Z"/><path class="cls-1" d="M46.17,24.4H9.81c-2.36,0-2.4,3,0,3H46.17C48.57,27.41,48.53,24.4,46.17,24.4Z"/><path class="cls-1" d="M38.18,30.31H15.86c-2.35,0-2.4,3,0,3H38.18C40.59,33.32,40.54,30.31,38.18,30.31Z"/></g></g></svg>